# xmcd
#
# Track frame offsets:
#	150
#	11506
#	20433
#	36881
#	54735
#	68060
#	82621
#	104138
#	116587
#	124917
#	135494
#	153485
#	164680
#	178402
#
# Disc length: 2475 seconds
#
# Revision: 0
# Processed by: cddbd v1.5.2PL0 Copyright (c) Steve Scherf et al.
# Submitted via: dBpowerAMP V4.0
#
DISCID=be09a90e
DTITLE=The Experimental Tropic Blues Band - Hellelujah
DYEAR=2007
DGENRE=Psy. Boogie Blues
TTITLE0=Rene the Renegade
TTITLE1=Jealous Rock
TTITLE2=Rising from the Dead
TTITLE3=the Gambler
TTITLE4=Twice Blues
TTITLE5=Voodoo Rise
TTITLE6=Gangrene Blues
TTITLE7=Garbage Man
TTITLE8=Snake VS Wolf
TTITLE9=Dry Whisky
TTITLE10=Hallelujah
TTITLE11=Mexico Dream Blues
TTITLE12=I Went Down
TTITLE13=Evil Can't Be Done
EXTD=
EXTT0=
EXTT1=
EXTT2=
EXTT3=
EXTT4=
EXTT5=
EXTT6=
EXTT7=
EXTT8=
EXTT9=
EXTT10=
EXTT11=
EXTT12=
EXTT13=
PLAYORDER=
